<?xml version="1.0" standalone="no"?>
<!DOCTYPE svg PUBLIC "-//W3C//DTD SVG 20010904//EN"
 "http://www.w3.org/TR/2001/REC-SVG-20010904/DTD/svg10.dtd">
<svg version="1.0" xmlns="http://www.w3.org/2000/svg"
 width="320.000000pt" height="320.000000pt" viewBox="0 0 320.000000 320.000000"
 preserveAspectRatio="xMidYMid meet">

<g transform="translate(0.000000,320.000000) scale(0.100000,-0.100000)"
fill="#000000" stroke="none">
<path d="M930 2893 c-26 -10 -50 -36 -50 -55 0 -24 4 -23 57 12 24 17 51 30
59 30 7 0 14 5 14 10 0 10 -54 12 -80 3z"/>
<path d="M1860 2873 c0 -9 -5 -11 -12 -6 -7 4 -5 -5 5 -20 20 -31 13 -35 -16
-9 -11 9 -17 11 -13 5 4 -8 2 -13 -7 -13 -8 0 -22 -9 -32 -20 -15 -16 -16 -23
-5 -37 7 -10 1 -6 -13 9 -26 28 -43 24 -31 -7 6 -15 4 -16 -13 -6 -17 8 -22 7
-27 -5 -3 -8 -2 -12 4 -9 6 3 10 2 10 -2 0 -5 21 -8 48 -8 26 0 79 -3 117 -8
39 -4 85 -8 103 -8 17 -1 32 -5 32 -10 0 -5 7 -9 15 -9 8 0 15 4 15 8 0 11 94
-2 147 -21 l42 -14 -26 51 c-28 56 -51 86 -66 86 -6 0 -3 -8 7 -19 9 -10 14
-25 10 -34 -5 -15 -8 -15 -21 -2 -8 8 -27 15 -43 15 -16 0 -31 4 -34 9 -8 13
-78 4 -87 -11 -6 -8 -9 -2 -9 19 0 20 -9 42 -24 58 -28 30 -76 41 -76 18z"/>
<path d="M1440 2847 c0 -14 97 -36 130 -28 35 7 35 7 -19 15 -30 4 -67 10 -82
13 -16 3 -29 3 -29 0z"/>
<path d="M1149 2826 c-3 -3 -14 -7 -25 -9 -10 -2 -38 -15 -61 -30 -52 -33 -62
-34 -37 -4 l19 22 -22 -19 c-12 -10 -21 -22 -20 -25 3 -12 -77 -84 -98 -88
-11 -3 -56 -8 -100 -12 -54 -5 -73 -10 -59 -15 20 -7 20 -8 -8 -38 -30 -32
-58 -112 -58 -162 1 -17 7 -44 15 -61 l14 -30 -3 30 c-3 36 11 104 26 122 18
22 20 8 3 -23 -29 -57 -20 -92 38 -151 30 -29 48 -53 40 -53 -8 0 -11 -4 -8
-10 3 -5 -2 -10 -12 -10 -10 0 -29 -9 -43 -20 l-25 -20 30 10 30 10 -24 -20
c-26 -22 -115 -29 -126 -9 -4 6 -13 8 -20 5 -15 -5 -82 35 -102 62 -11 13 -13
14 -13 1 0 -17 43 -60 77 -78 18 -9 129 -15 201 -10 15 1 27 13 39 38 21 45
32 56 63 66 24 7 24 7 5 -9 -19 -15 -19 -15 12 -16 17 0 35 5 38 10 3 6 15 10
27 10 16 0 18 -3 9 -14 -7 -8 -22 -17 -35 -20 -24 -6 -102 -93 -93 -103 13
-12 109 66 143 117 13 19 36 53 52 75 15 22 31 47 34 57 8 19 101 56 163 65
42 5 43 4 136 -81 52 -47 101 -86 110 -86 29 0 40 -23 27 -58 -16 -41 -54 -47
-44 -7 5 18 2 25 -9 25 -22 0 -30 -4 -27 -12 1 -5 -3 -8 -9 -8 -20 0 -69 -70
-69 -100 0 -19 62 -69 77 -63 13 5 13 3 2 -15 -12 -18 -11 -23 3 -34 15 -11
23 -37 19 -61 0 -4 -20 6 -42 23 -23 16 -45 27 -50 24 -5 -3 -9 -1 -9 4 0 6
-18 17 -41 26 -37 15 -51 15 -162 1 -67 -8 -143 -22 -169 -32 -42 -15 -49 -21
-54 -51 -8 -41 39 -166 70 -188 18 -13 23 -11 48 16 29 32 39 37 35 18 -1 -7
6 -12 16 -10 9 2 17 -1 17 -6 0 -6 -8 -13 -17 -17 -31 -11 25 -34 85 -35 60 0
101 15 162 59 24 17 50 31 59 31 36 0 93 23 116 46 27 27 31 39 15 49 -8 5 -7
11 1 21 8 10 15 11 24 4 7 -6 19 -8 28 -4 11 4 16 -1 19 -18 2 -16 10 -23 25
-23 30 -1 33 -6 35 -51 0 -21 4 -43 8 -49 12 -17 20 -45 12 -44 -39 6 -61 -4
-74 -31 -7 -16 -15 -30 -18 -30 -7 0 -38 -23 -83 -63 -18 -15 -65 -45 -104
-67 -40 -22 -73 -45 -73 -50 0 -6 -7 -10 -15 -10 -11 0 -14 -13 -14 -55 1 -30
5 -55 10 -55 32 0 -10 -78 -80 -152 -50 -51 -102 -58 -138 -18 -14 15 -22 20
-23 11 0 -10 -3 -11 -13 -2 -8 6 -17 8 -20 5 -4 -4 -32 6 -64 21 -44 21 -66
25 -95 21 -21 -4 -38 -3 -38 1 0 9 94 59 127 68 12 3 36 19 52 35 27 25 31 35
31 83 0 41 -5 61 -20 78 l-21 24 15 -31 c14 -30 14 -32 -9 -54 -21 -19 -30
-21 -76 -15 -29 4 -61 12 -70 18 -11 7 -29 7 -57 0 -30 -8 -42 -8 -46 1 -3 7
-5 6 -5 -3 -1 -11 -4 -11 -18 0 -14 12 -16 12 -11 -1 2 -8 23 -28 46 -45 l42
-30 -2 -80 c-2 -85 11 -159 44 -240 11 -27 23 -64 28 -81 11 -47 19 -57 35
-44 24 20 118 24 156 7 19 -9 50 -19 69 -23 l34 -6 -28 -24 c-24 -21 -37 -24
-110 -24 -69 0 -88 4 -110 21 l-26 20 0 -33 c0 -18 7 -41 14 -51 30 -39 134
-48 242 -21 76 19 77 19 94 -60 11 -51 62 -175 105 -257 l24 -45 -24 -50 c-32
-64 -31 -86 3 -137 16 -23 35 -58 42 -77 8 -19 34 -57 59 -83 l44 -48 -16 -35
c-16 -32 -16 -35 -1 -41 26 -10 280 5 376 22 196 35 440 130 592 231 175 116
169 99 63 199 -65 62 -94 97 -114 141 -14 33 -37 73 -49 89 -21 29 -94 228
-94 259 0 25 -41 66 -66 66 -56 0 -75 141 -34 260 24 72 92 187 213 359 92
131 136 240 137 333 0 31 4 68 10 83 5 14 12 78 15 143 4 105 3 121 -15 150
-11 18 -25 30 -30 27 -6 -4 -7 1 -3 12 3 10 2 15 -2 11 -5 -5 -15 1 -22 12 -8
11 -19 18 -24 14 -5 -3 -8 0 -7 7 2 7 -15 23 -37 35 -33 19 -39 28 -39 54 1
17 -1 28 -4 25 -6 -5 -31 25 -32 38 0 5 6 5 13 1 13 -8 -21 36 -38 48 -21 15
-16 -3 6 -22 15 -13 8 -11 -19 6 -41 26 -51 28 -180 31 -86 2 -148 9 -167 17
-16 7 -43 16 -60 20 l-30 6 29 -24 c17 -14 32 -23 35 -21 3 1 12 -4 20 -13 13
-13 12 -14 -11 -9 -34 9 -65 -2 -46 -15 9 -7 7 -8 -7 -2 -11 4 -39 8 -63 9
-24 0 -52 9 -62 18 -11 9 -24 17 -30 17 -5 0 -14 8 -19 18 -20 33 -10 -3 13
-50 13 -27 20 -48 17 -48 -10 0 -85 52 -99 69 -12 14 -13 12 -9 -12 4 -26 4
-27 -14 -11 -11 9 -19 14 -19 10 0 -12 37 -56 42 -50 3 3 8 -2 11 -11 6 -13 2
-13 -26 2 -17 9 -36 16 -41 15 -5 -2 -6 4 -3 12 5 12 1 13 -18 6 -19 -7 -27
-5 -35 8 -8 12 -10 13 -7 2 3 -11 -2 -15 -21 -14 -14 0 -28 6 -30 12 -5 17
-22 15 -22 -3 0 -26 -27 -16 -35 12 -5 21 -8 24 -16 12 -7 -12 -9 -11 -9 3 0
11 -5 15 -15 12 -8 -4 -15 -1 -15 5 0 20 -19 11 -23 -11 -3 -19 -5 -17 -6 7
-2 26 -3 27 -11 10 -7 -17 -9 -15 -9 12 -1 54 -76 158 -121 168 -14 3 -28 4
-31 1z m-104 -78 c-38 -32 -70 -65 -100 -104 -14 -17 -14 -16 -4 11 13 37 32
59 83 96 53 40 70 37 21 -3z m25 -53 c-23 -19 -45 -35 -48 -35 -12 1 67 70 79
70 6 0 -8 -16 -31 -35z m66 -4 c-26 -27 -76 -47 -76 -31 0 11 28 33 59 47 42
19 46 15 17 -16z m-235 -71 c-14 -31 -20 -38 -23 -24 -3 15 -8 11 -28 -21 -13
-22 -36 -52 -51 -66 -37 -35 -47 -74 -24 -99 10 -11 22 -17 28 -13 6 3 7 1 3
-5 -9 -14 42 -41 97 -51 l42 -8 -42 -13 c-37 -11 -45 -11 -67 4 -14 9 -32 16
-40 16 -8 0 -24 12 -35 26 -41 52 -18 159 42 194 18 11 49 40 71 65 21 26 40
44 42 42 2 -2 -4 -23 -15 -47z m299 36 c0 -2 -8 -10 -17 -17 -16 -13 -17 -12
-4 4 13 16 21 21 21 13z m795 -126 c-4 -6 13 -10 42 -11 l48 -1 -51 -12 c-28
-6 -58 -16 -65 -22 -8 -6 -29 -12 -48 -12 -30 -1 -32 0 -15 13 11 8 25 15 32
15 7 0 11 4 8 9 -5 7 22 22 52 30 2 1 0 -3 -3 -9z m-195 -95 c-45 -30 -105
-62 -133 -70 -66 -20 -177 -19 -225 1 -39 16 -102 71 -102 88 0 6 10 -1 21
-16 29 -40 78 -66 136 -74 56 -7 157 12 147 28 -3 5 0 8 7 7 14 -3 57 14 159
63 83 40 81 34 -10 -27z m-762 -45 c-7 -11 -17 -20 -22 -20 -5 0 -1 9 9 20 10
11 20 20 22 20 2 0 -2 -9 -9 -20z m453 -281 c-12 -10 -20 -23 -17 -28 4 -5 1
-13 -5 -16 -6 -4 -13 2 -16 14 -3 12 -9 21 -14 21 -18 0 4 29 24 32 40 7 52
-3 28 -23z m-247 -201 l18 -21 -38 6 c-22 4 -48 7 -59 7 -18 1 -17 2 5 15 35
20 53 18 74 -7z m816 -38 c0 -6 29 -10 68 -10 68 0 84 -6 112 -44 15 -19 14
-19 -17 -3 -48 25 -113 22 -157 -8 -20 -13 -36 -20 -36 -14 0 5 -18 0 -40 -11
-57 -29 -68 -26 -68 15 0 38 3 42 63 67 46 19 75 22 75 8z m-887 -77 c-7 -2
-19 -2 -25 0 -7 3 -2 5 12 5 14 0 19 -2 13 -5z m991 -84 c14 -74 7 -114 -26
-152 -19 -21 -48 -40 -68 -45 -40 -9 -55 -42 -20 -42 52 0 122 62 164 148 15
29 24 58 20 65 -4 7 -3 9 1 4 5 -4 17 5 27 20 17 27 18 27 18 5 0 -26 -68
-145 -109 -189 -44 -48 -110 -92 -164 -108 -47 -14 -52 -14 -88 7 -30 17 -36
24 -28 35 6 7 24 13 40 13 27 0 43 20 17 20 -7 0 -24 10 -38 21 -25 20 -25 20
-1 9 17 -9 30 -9 48 -1 13 6 33 11 44 11 19 0 84 42 102 65 4 6 10 5 16 -4 7
-11 10 -9 16 8 11 34 -2 55 -47 76 -55 26 -59 42 -10 37 26 -3 42 1 51 12 20
23 28 20 35 -15z m-220 -51 c9 -12 16 -26 16 -30 0 -13 -60 -62 -80 -65 -16
-2 -17 1 -10 25 11 41 39 92 50 92 5 0 16 -10 24 -22z m-844 -490 c0 -4 -16
-8 -35 -8 -20 0 -52 -8 -73 -19 -60 -30 -91 -34 -119 -16 -52 35 -3 52 150 52
42 0 77 -4 77 -9z m792 -20 c-7 -7 -12 -27 -12 -45 0 -18 -4 -33 -8 -33 -5 0
-14 -25 -21 -55 -7 -30 -17 -53 -22 -50 -5 4 -9 -5 -9 -20 0 -14 -7 -36 -16
-50 -13 -20 -91 -84 -132 -109 -30 -18 112 285 159 338 17 20 41 36 52 36 16
0 18 -3 9 -12z m75 -35 c-6 -50 -55 -152 -84 -180 -38 -36 -57 -28 -28 11 8
11 15 30 15 42 0 34 69 164 87 164 12 0 15 -8 10 -37z"/>
<path d="M1585 2800 c-8 -13 15 -13 35 0 12 8 11 10 -7 10 -12 0 -25 -4 -28
-10z"/>
<path d="M731 2728 c-1 -30 30 -58 64 -58 15 0 13 4 -12 16 -18 9 -36 28 -42
43 l-9 26 -1 -27z"/>
<path d="M1463 2743 c15 -2 39 -2 55 0 15 2 2 4 -28 4 -30 0 -43 -2 -27 -4z"/>
<path d="M2168 2673 c7 -3 16 -2 19 1 4 3 -2 6 -13 5 -11 0 -14 -3 -6 -6z"/>
<path d="M1854 2635 c11 -8 25 -15 30 -15 6 0 2 7 -8 15 -11 8 -25 15 -30 15
-6 0 -2 -7 8 -15z"/>
<path d="M634 2405 c-3 -8 -4 -20 -2 -27 3 -7 7 -1 10 15 6 29 1 36 -8 12z"/>
<path d="M745 1973 c-5 -26 -1 -44 15 -71 15 -25 20 -45 16 -65 -5 -25 -3 -29
13 -24 22 5 47 -33 37 -58 -3 -9 -2 -13 4 -10 15 9 50 95 50 124 0 24 -29 117
-30 97 0 -5 -8 1 -19 13 -10 11 -32 23 -49 25 -28 3 -31 0 -37 -31z"/>
</g>
</svg>
